<svg xmlns="http://www.w3.org/2000/svg" id="s" viewBox="0 0 800 560"><defs><filter id="card-shadow" x="-40%" y="-40%" width="180%" height="180%"><feDropShadow dx="0" dy="2" stdDeviation="4" flood-color="#1e3c2d" flood-opacity="0.14"/></filter></defs><g class="zoom-group" transform="translate(400,80) scale(1)"><g class="content-group"><g class="links"><path class="link lit" d="M0,0C0,70,-130,70,-130,140" fill="none" stroke="#2e9e5b" stroke-width="2" stroke-dasharray="none"/><text class="edge-label" x="-65" y="67" text-anchor="middle" font-size="11" fill="#2e7d5b" paint-order="stroke" stroke="#ffffff" stroke-width="4" stroke-linejoin="round" style="cursor: pointer;">短除法最常见的使用场景：两个数并排短除，…<title>短除法最常见的使用场景：两个数并排短除，把左边共用的质因数乘起来就是最大公因数——约分和化简全靠它。</title></text><path class="link" d="M0,0C0,70,130,70,130,140" fill="none" stroke="#c6d2cc" stroke-width="1.5" stroke-dasharray="5 5"/></g><g class="nodes"><g class="node" transform="translate(0,0)"><rect x="-108" y="-32" width="216" height="64" rx="12" fill="#ffffff" stroke="#2e7d5b" stroke-width="3" filter="url(#card-shadow)" style="cursor: pointer;"/><circle class="state-dot" cx="-92" cy="-17" r="6" fill="#93a29d"/><text x="0" y="7" text-anchor="middle" font-size="14" font-weight="600" fill="#243b33">短除法的应用</text><circle class="collapse-toggle" cx="0" cy="32" r="10" fill="#ffffff" stroke="#b8c4c0" style="cursor: pointer;"/><text x="0" y="35.5" text-anchor="middle" font-size="12" fill="#68766f" style="cursor: pointer;">−</text><title>短除法的应用｜未学｜双击聚焦</title></g><g class="node" transform="translate(-130,140)"><rect x="-108" y="-32" width="216" height="64" rx="12" fill="#ffffff" stroke="#93a29d" stroke-width="1.5" filter="url(#card-shadow)" style="cursor: pointer;"/><circle class="state-dot" cx="-92" cy="-17" r="6" fill="#93a29d"/><text x="0" y="7" text-anchor="middle" font-size="14" font-weight="600" fill="#243b33">求最大公因数</text><title>求最大公因数｜未学｜双击聚焦</title></g><g class="node" transform="translate(130,140)"><rect x="-108" y="-32" width="216" height="64" rx="12" fill="#ffffff" stroke="#93a29d" stroke-width="1.5" filter="url(#card-shadow)" style="cursor: pointer;"/><circle class="state-dot" cx="-92" cy="-17" r="6" fill="#93a29d"/><text x="0" y="7" text-anchor="middle" font-size="14" font-weight="600" fill="#243b33">分数约分</text><title>分数约分｜未学｜双击聚焦</title></g></g></g></g></svg>